<svg width="64" height="64" viewBox="0 0 64 64" fill="none" xmlns="http://www.w3.org/2000/svg">
  <rect x="3" y="3" width="58" height="58" rx="18" fill="#071414" />
  <path
    d="M21 39c-3-1-6-4-6-9 0-4 2-7 5-9 1-5 5-8 10-8 3 0 5 1 7 3 1-1 3-1 5-1 6 0 11 5 11 11 0 2 0 3-1 5 1 1 2 3 2 5 0 5-4 9-9 9H21Z"
    fill="url(#paint0_linear_1_1)"
  />
  <path
    d="M24 25c2 0 4 1 5 3m8-7c0 2-1 3-2 4m7 5c-2 0-3 1-4 3m-15 0c2 0 4 1 5 3m6-6c1 1 2 3 2 5m-8 5c2 0 4 1 5 3"
    stroke="#071414"
    stroke-width="2.4"
    stroke-linecap="round"
  />
  <defs>
    <linearGradient id="paint0_linear_1_1" x1="6" y1="6" x2="58" y2="58" gradientUnits="userSpaceOnUse">
      <stop stop-color="#7FF6E3" />
      <stop offset="1" stop-color="#18A88A" />
    </linearGradient>
  </defs>
</svg>
